# xmcd
#
# Track frame offsets: 
#        150
#        13276
#        26477
#        39680
#        51022
#        64069
#        75212
#        86725
#        99471
#        112655
#        129073
#        142511
#
# Disc length: 2041 seconds
#
# Revision: 1
# Processed by: cddbd v1.5.2PL0 Copyright (c) Steve Scherf et al.
# Submitted via: ExactAudioCopy v0.95b3
#
DISCID=8307f70c
DTITLE=Brown, James - Tour The U.S.A.
DYEAR=1962
DGENRE=Soul
TTITLE0=Mashed Potatoes U.S.A.
TTITLE1=Choo-Choo Locomotion
TTITLE2=Three Hearts In A Tangle
TTITLE3=Doin' The Limbo
TTITLE4=I Don't Care
TTITLE5=Joggin' Along
TTITLE6=I've Got Money
TTITLE7=Sticky
TTITLE8=Like A Baby
TTITLE9=Every Beat Of My Heart
TTITLE10=In The Wee Wee Hours (Of The Night)
TTITLE11=Cross Firing
EXTD=
EXTT0=
EXTT1=
EXTT2=
EXTT3=
EXTT4=
EXTT5=
EXTT6=
EXTT7=
EXTT8=
EXTT9=
EXTT10=
EXTT11=
PLAYORDER=
